<svg width="352" height="352" viewBox="0 0 352 352" fill="none" xmlns="http://www.w3.org/2000/svg">
<path d="M72.246 72.2768C129.485 14.992 222.29 14.992 279.529 72.2768C336.769 129.562 336.769 222.439 279.529 279.724C222.29 337.009 129.485 337.009 72.246 279.724C15.0065 222.439 15.0066 129.562 72.246 72.2768ZM261.172 90.5864C214.539 43.9121 138.932 43.9122 92.2997 90.5864C29.8477 153.094 112.379 168.911 147.647 204.21C182.916 239.51 198.719 322.117 261.172 259.609C307.804 212.935 307.804 137.261 261.172 90.5864ZM128.127 127.152C154.774 100.454 197.978 100.454 224.625 127.152C251.272 153.85 251.272 197.135 224.625 223.832C192.762 255.755 192.084 218.127 162.952 188.94C133.82 159.753 96.2645 159.075 128.127 127.152Z" fill="black"/>
</svg>
